<?xml version="1.0" encoding="UTF-8"?> <svg xmlns="http://www.w3.org/2000/svg" xmlns:xlink="http://www.w3.org/1999/xlink" width="704.617" height="696.04" viewBox="0 0 704.617 696.04"><defs><linearGradient id="linear-gradient" x1="1.63" y1="-0.826" x2="0.696" y2="0.315" gradientUnits="objectBoundingBox"><stop offset="0" stop-color="#9feab2"></stop><stop offset="1" stop-color="#6ad4ab"></stop></linearGradient><linearGradient id="linear-gradient-2" x1="0.44" y1="0.662" x2="1.479" y2="-0.006" gradientUnits="objectBoundingBox"><stop offset="0" stop-color="#67d690"></stop><stop offset="1" stop-color="#00a99d"></stop></linearGradient><linearGradient id="linear-gradient-3" x1="0.652" y1="1.355" x2="0.308" y2="-0.317" xlink:href="#linear-gradient-2"></linearGradient><linearGradient id="linear-gradient-4" x1="1.569" y1="-3.264" x2="0.443" y2="0.681" xlink:href="#linear-gradient-2"></linearGradient><linearGradient id="linear-gradient-5" x1="1.766" y1="-0.739" x2="-1.475" y2="2.363" xlink:href="#linear-gradient"></linearGradient><linearGradient id="linear-gradient-6" x1="-3.291" y1="6.066" x2="2.371" y2="-2.148" xlink:href="#linear-gradient"></linearGradient><linearGradient id="linear-gradient-7" x1="-1.921" y1="6.567" x2="2.646" y2="-4.883" xlink:href="#linear-gradient"></linearGradient><linearGradient id="linear-gradient-8" x1="2.952" y1="-6.137" x2="-0.281" y2="2.587" xlink:href="#linear-gradient-2"></linearGradient><linearGradient id="linear-gradient-9" x1="-117.261" y1="0.959" x2="-116.1" y2="-0.256" xlink:href="#linear-gradient-2"></linearGradient><linearGradient id="linear-gradient-10" x1="-129.104" y1="-17.527" x2="-127.821" y2="-18.589" xlink:href="#linear-gradient-2"></linearGradient><linearGradient id="linear-gradient-11" x1="-139.485" y1="-39.281" x2="-138.088" y2="-40.278" xlink:href="#linear-gradient-2"></linearGradient><linearGradient id="linear-gradient-12" x1="-115.277" y1="-65.352" x2="-113.98" y2="-66.453" xlink:href="#linear-gradient-2"></linearGradient><linearGradient id="linear-gradient-13" x1="1.161" y1="1.496" x2="0.332" y2="0.412" xlink:href="#linear-gradient-2"></linearGradient><linearGradient id="linear-gradient-14" x1="-216.312" y1="-1.209" x2="-216.312" y2="-3.204" gradientUnits="objectBoundingBox"><stop offset="0" stop-color="#fe4500"></stop><stop offset="1" stop-color="#efdb29"></stop></linearGradient><linearGradient id="linear-gradient-15" x1="0.073" y1="1.6" x2="0.879" y2="-0.476" gradientUnits="objectBoundingBox"><stop offset="0" stop-color="#36078b"></stop><stop offset="1" stop-color="#16b1ff"></stop></linearGradient><linearGradient id="linear-gradient-16" y1="0.495" x2="1" y2="0.495" gradientUnits="objectBoundingBox"><stop offset="0" stop-color="#fea600"></stop><stop offset="1" stop-color="#efdb29"></stop></linearGradient><linearGradient id="linear-gradient-17" x1="0.5" y1="1.777" x2="0.5" y2="-0.088" gradientUnits="objectBoundingBox"><stop offset="0" stop-color="#00fef6"></stop><stop offset="1" stop-color="#29a0ef" stop-opacity="0"></stop></linearGradient><linearGradient id="linear-gradient-18" x1="0.5" y1="0.946" x2="0.5" y2="-3.795" xlink:href="#linear-gradient-15"></linearGradient><linearGradient id="linear-gradient-19" x1="0.278" y1="11.89" x2="0.565" y2="7.965" xlink:href="#linear-gradient-15"></linearGradient></defs><g id="rescody" transform="translate(-2729.065 823)"><ellipse id="Ellipse_17" data-name="Ellipse 17" cx="281.426" cy="6.508" rx="281.426" ry="6.508" transform="translate(2870.83 -139.976)" fill="#ccd9f8"></ellipse><path id="Path_199" data-name="Path 199" d="M138.4,380.633c0,1.879,18.95,3.393,42.319,3.393s42.3-1.514,42.3-3.393-18.932-3.393-42.3-3.393S138.4,378.754,138.4,380.633Z" transform="translate(2683.881 -543.805)" fill="#ccd9f8"></path><path id="Path_202" data-name="Path 202" d="M443.984,233.344c-11.119,16.253-14.721,27.32-.644,28.712s32.192-34.8,21.751-41.762C457.731,215.4,449.291,225.6,443.984,233.344Z" transform="translate(2902.763 -660.906)" fill="url(#linear-gradient)"></path><g id="Group_127" data-name="Group 127" transform="translate(3306.121 -502.723)"><path id="Path_200" data-name="Path 200" d="M474.984,194.654c8.526-2.662,11.937,3.48,11.119,8.266-1.166,6.734-4.82,7.5,4.159,13.312,6.63,4.281,8.2,13.173.713,17.627-10.441,6.23.7,11.05,3.115,16.392,5.029,11.015-3.2,13.712-16.5,19.141-13.66,5.69-23.822,2.906-33.41-5.795-7.047-6.421-11.241-13.66-6.96-20.2,6.073-9.414,16.026-3.028,12.181-12.181-2.314-5.481-2.54-15.661,9.919-16.583S462.7,198.5,474.984,194.654Z" transform="translate(-402.358 -176.691)" fill="url(#linear-gradient-2)"></path><path id="Path_201" data-name="Path 201" d="M438.39,184.445c-10.737-2.245-14.164,5.725-12.6,11.432,2.21,8.074,6.769,8.579-3.48,16.74-7.587,6.038-8.44,17.088,1.218,21.629,13.5,6.369.47,13.59-1.862,20.394-4.82,14.06,5.551,16.374,22.447,21.49,17.4,5.22,29.582.679,40.127-11.067,7.83-8.7,12.181-18.01,6.16-25.51-8.544-10.771-19.924-1.74-16.3-13.434,2.175-6.96,1.218-19.472-14.095-19.141S453.947,187.682,438.39,184.445Z" transform="translate(-416.453 -184.057)" fill="url(#linear-gradient-3)"></path><path id="Path_203" data-name="Path 203" d="M442.433,288.021h31.9a8.126,8.126,0,0,0,8-6.8l6.96-42.928a1.6,1.6,0,0,0-1.584-1.879H428.93a1.618,1.618,0,0,0-1.6,1.879l6.96,42.928a8.091,8.091,0,0,0,8.144,6.8Z" transform="translate(-408.42 -145.31)" fill="#0050c8"></path></g><path id="Path_204" data-name="Path 204" d="M435.585,211.387c9.936,3.01,18.2,7.152,11.78,10.075s-28.764-6.369-25.649-10.441C423.926,208.307,430.852,209.942,435.585,211.387Z" transform="translate(2893.344 -667.904)" fill="url(#linear-gradient-4)"></path><path id="Path_205" data-name="Path 205" d="M429.69,196c2.28,6.247,4.629,9.431,7.778,5.829s-3.237-15.661-7.2-14.217C427.463,188.672,428.611,193.005,429.69,196Z" transform="translate(2898.594 -684.238)" fill="url(#linear-gradient-5)"></path><path id="Path_206" data-name="Path 206" d="M460.013,202.043c-2.436,6.195-2.784,10.127,1.966,9.518s7.987-13.921,4.02-15.417C463.2,195.083,461.179,199.085,460.013,202.043Z" transform="translate(2920.614 -677.963)" fill="url(#linear-gradient-6)"></path><path id="Path_207" data-name="Path 207" d="M469.069,219.945c4.315-3.846,6.125-6.752,2.21-8.144s-11.641,7.639-9.153,10.354C463.866,224.087,467,221.772,469.069,219.945Z" transform="translate(2923.112 -666.353)" fill="url(#linear-gradient-7)"></path><path id="Path_208" data-name="Path 208" d="M440.709,209.925c-3.915-1.322-6.351-1.41-5.829,1.5s8.857,4.524,9.675,2.019C445.129,211.665,442.571,210.552,440.709,209.925Z" transform="translate(2903.254 -668.287)" fill="url(#linear-gradient-8)"></path><path id="Path_209" data-name="Path 209" d="M107,375.914H528.209V123.6H107Zm414.614-6.595h-408V130.247h408Z" transform="translate(2660.642 -731.524)" fill="#99c1f9"></path><rect id="Rectangle_35" data-name="Rectangle 35" width="414.614" height="245.667" transform="translate(3191.704 -358.898) rotate(180)" fill="#d8e7fc"></rect><g id="Group_102" data-name="Group 102" transform="translate(2794.457 -561.731)" opacity="0.7"><path id="Path_210" data-name="Path 210" d="M282.039,163.813a4.054,4.054,0,0,1-1.079-3.237c.4-1.74,2.749-2.871,6.282-3.184a4.263,4.263,0,0,1-.609-3.01c1.044-4.785,12.946-5.638,26.571-1.932a66.415,66.415,0,0,1,12.929,4.959,3.1,3.1,0,0,1,0-1.74c1.235-3.48,10.441-2.889,20.62,1.514a56.028,56.028,0,0,1,6.856,3.48c.783-1.409,4.785-1.322,9.24.244a20.6,20.6,0,0,1,5.76,2.993l35.463,2.193H246.68Z" transform="translate(-30.438 -150.146)" fill="#fff"></path><path id="Path_211" data-name="Path 211" d="M205.273,219.548a2.784,2.784,0,0,1-.748-2.21c.278-1.218,1.9-1.966,4.315-2.175a2.993,2.993,0,0,1-.418-2.071c.713-3.271,8.857-3.863,18.184-1.305a45.245,45.245,0,0,1,8.857,3.376,2.105,2.105,0,0,1,0-1.183c.835-2.436,7.169-1.966,14.112,1.027a40.789,40.789,0,0,1,4.7,2.419c.539-.957,3.271-.9,6.317.174a14.11,14.11,0,0,1,3.95,2.053l24.274,1.5H181.12Z" transform="translate(-78.959 -105.703)" fill="#fff"></path><path id="Path_212" data-name="Path 212" d="M173.9,205.761a4.75,4.75,0,0,1-.47-2.889c.609-3.115,5.22-4.611,11.589-4.368a9.17,9.17,0,0,1-.244-4.368c2.193-11.154,27.128-13.173,55.683-4.507a138.53,138.53,0,0,1,15.313,5.638,8.2,8.2,0,0,1-.261-3.967c1.531-7.8,15.9-10.441,34.419-7.221a2.67,2.67,0,0,1,.174-.713c2.715-8.7,22.447-7.4,44.634,2.749,5.534-2.245,16.809-.7,29.007,4.507a76.235,76.235,0,0,1,17.61,10.3,3.48,3.48,0,0,1-.3-2.262c.887-3.184,8.231-2.941,16.409.539a33.619,33.619,0,0,1,11.119,7.291l46.008,3.48H122.41Z" transform="translate(-122.41 -129.833)" fill="#fff"></path></g><path id="Path_213" data-name="Path 213" d="M264.639,371.2h71.292L208.712,125.52H137.42Z" transform="translate(2683.156 -730.103)" fill="#f8fff8" opacity="0.3"></path><path id="Path_214" data-name="Path 214" d="M247.269,371.2h17.54L137.59,125.52H120.05Z" transform="translate(2670.3 -730.103)" fill="#f8fff8" opacity="0.3"></path><path id="Path_215" data-name="Path 215" d="M387.276,371.2h17.54L277.6,125.52H260.04Z" transform="translate(2773.906 -730.103)" fill="#f8fff8" opacity="0.3"></path><path id="Path_216" data-name="Path 216" d="M110.54,375.914H531.749V123.6H110.54Zm414.614-6.595H117.135V130.247H525.154Z" transform="translate(2663.262 -731.524)" fill="#d8e7fc"></path><g id="Group_103" data-name="Group 103" transform="translate(2801.556 -458.275)" opacity="0.8"><rect id="Rectangle_36" data-name="Rectangle 36" width="43.624" height="57.963" transform="translate(86.274 38.108)" fill="#56a8ed"></rect><rect id="Rectangle_37" data-name="Rectangle 37" width="35.289" height="32.053" transform="translate(0 64.018)" fill="#62afef"></rect><rect id="Rectangle_38" data-name="Rectangle 38" width="19.611" height="57.963" transform="translate(78.914 38.108)" fill="#7abaf9"></rect><rect id="Rectangle_39" data-name="Rectangle 39" width="43.624" height="96.071" transform="translate(35.307)" fill="#56a8ed"></rect><rect id="Rectangle_40" data-name="Rectangle 40" width="4.629" height="57.963" transform="translate(78.914 38.108)" fill="#62afef"></rect><rect id="Rectangle_41" data-name="Rectangle 41" width="19.594" height="96.071" transform="translate(27.963)" fill="#7abaf9"></rect><rect id="Rectangle_42" data-name="Rectangle 42" width="31.357" height="6.647" transform="translate(78.914 23.491) rotate(180)" fill="#7abaf9"></rect><rect id="Rectangle_43" data-name="Rectangle 43" width="31.357" height="6.647" transform="translate(78.914 35.585) rotate(180)" fill="#7abaf9"></rect><rect id="Rectangle_44" data-name="Rectangle 44" width="31.357" height="6.647" transform="translate(78.914 47.696) rotate(180)" fill="#7abaf9"></rect><rect id="Rectangle_45" data-name="Rectangle 45" width="31.357" height="6.647" transform="translate(78.914 59.772) rotate(180)" fill="#7abaf9"></rect><rect id="Rectangle_46" data-name="Rectangle 46" width="31.357" height="6.647" transform="translate(78.914 71.884) rotate(180)" fill="#7abaf9"></rect><rect id="Rectangle_47" data-name="Rectangle 47" width="31.357" height="6.647" transform="translate(78.914 83.977) rotate(180)" fill="#7abaf9"></rect><rect id="Rectangle_48" data-name="Rectangle 48" width="31.357" height="6.647" transform="translate(47.557 89.424)" fill="#7abaf9"></rect><rect id="Rectangle_49" data-name="Rectangle 49" width="31.357" height="6.647" transform="translate(78.914 11.38) rotate(180)" fill="#7abaf9"></rect><path id="Path_217" data-name="Path 217" d="M203.65,253.974v29.094h43.607V240.14H215.9Z" transform="translate(-69.384 -186.997)" fill="#56a8ed"></path><path id="Path_218" data-name="Path 218" d="M199.43,262.274v20.794h19.594V240.14l-12.25,13.834-4.385,4.959Z" transform="translate(-72.507 -186.997)" fill="#7abaf9"></path><rect id="Rectangle_50" data-name="Rectangle 50" width="31.357" height="6.647" transform="translate(177.89 59.772) rotate(180)" fill="#7abaf9"></rect><rect id="Rectangle_51" data-name="Rectangle 51" width="31.357" height="6.647" transform="translate(177.89 71.884) rotate(180)" fill="#7abaf9"></rect><rect id="Rectangle_52" data-name="Rectangle 52" width="31.357" height="6.647" transform="translate(177.89 83.977) rotate(180)" fill="#7abaf9"></rect><rect id="Rectangle_53" data-name="Rectangle 53" width="31.357" height="6.647" transform="translate(146.534 89.424)" fill="#7abaf9"></rect><rect id="Rectangle_54" data-name="Rectangle 54" width="39.257" height="7.691" transform="translate(125.531 38.108) rotate(180)" fill="#56a8ed"></rect><rect id="Rectangle_55" data-name="Rectangle 55" width="24.309" height="7.691" transform="translate(118.066 31.165) rotate(180)" fill="#56a8ed"></rect><rect id="Rectangle_56" data-name="Rectangle 56" width="29.773" height="14.93" transform="translate(194.108 81.158)" fill="#56a8ed"></rect><rect id="Rectangle_57" data-name="Rectangle 57" width="13.381" height="14.93" transform="translate(189.097 81.158)" fill="#7abaf9"></rect><rect id="Rectangle_58" data-name="Rectangle 58" width="28.677" height="7.865" transform="translate(220.923 81.141) rotate(180)" fill="#56a8ed"></rect><rect id="Rectangle_59" data-name="Rectangle 59" width="9.257" height="9.762" transform="translate(212.136 73.798) rotate(180)" fill="#56a8ed"></rect><rect id="Rectangle_60" data-name="Rectangle 60" width="2.314" height="9.362" transform="translate(214.45 86.709)" fill="#62afef"></rect></g><path id="Path_219" data-name="Path 219" d="M169.776,359.239c9.866-6.3-2.767-25.527-25.753-27.389a46.131,46.131,0,0,0-.209,19.141C145.745,358.648,155.942,368.027,169.776,359.239Z" transform="translate(2687.22 -577.398)" fill="url(#linear-gradient-9)"></path><path id="Path_220" data-name="Path 220" d="M175.032,363.316c11.5-2.227,6.769-24.762-13.921-34.906a46.009,46.009,0,0,0-7.187,17.714C152.811,353.972,158.867,366.449,175.032,363.316Z" transform="translate(2695.276 -579.944)" fill="url(#linear-gradient-10)"></path><path id="Path_221" data-name="Path 221" d="M175.882,363.767c10.2,2.871,15.522-17.279,2.889-33.9a41.762,41.762,0,0,0-13.016,11.415C161.753,347.219,161.579,359.782,175.882,363.767Z" transform="translate(2702.395 -578.863)" fill="url(#linear-gradient-11)"></path><path id="Path_222" data-name="Path 222" d="M175.545,359.041c7.117,6.317,19.333-7.848,15.661-26.241a37.5,37.5,0,0,0-15,4.089C170.656,340.108,165.575,350.184,175.545,359.041Z" transform="translate(2707.169 -576.695)" fill="url(#linear-gradient-12)"></path><path id="Path_223" data-name="Path 223" d="M221.522,369.171c39.1-15.33,7.83-91.756-71.814-114.151,0,0-15.661,33.967-13.921,67.185C137.232,350.569,166.692,390.713,221.522,369.171Z" transform="translate(2681.848 -634.26)" fill="url(#linear-gradient-13)"></path><path id="Path_224" data-name="Path 224" d="M148.25,260.859A70.771,70.771,0,0,1,166.451,280a50.724,50.724,0,0,1,3.48,5.534,62.938,62.938,0,0,1,3.254,5.673c.922,2,1.9,3.95,2.871,5.9l1.444,2.923,1.148,3.08a169.084,169.084,0,0,1,7.709,25.023c.818,4.315,1.74,8.6,2.645,12.894l1.549,13.12c.244,2.193.679,4.35.8,6.56l.331,6.63c.244,4.42.418,8.84.713,13.277-.122,8.892,0,17.8-.261,26.745-.244,4.472-.574,8.927-.731,13.416l-.278,6.752-.139,3.376-.313,3.358-1.079,13.521-.539,6.786-.331,6.839.644.122,4.7-26.763.592-3.358.365-3.376.748-6.752,1.479-13.521.365-3.376.139-3.393.261-6.8.522-13.59-.5-13.59-.261-6.8c-.1-2.262-.5-4.507-.731-6.769l-1.74-13.5-2.941-13.294a150.9,150.9,0,0,0-9.014-25.684l-1.357-3.115-1.653-2.976L177,288.909c-1.079-2-2.558-3.759-3.811-5.655a51.714,51.714,0,0,0-4.089-5.447,66.541,66.541,0,0,0-20.62-17.627Z" transform="translate(2691.171 -630.441)" fill="#e2e2e2"></path><path id="Path_225" data-name="Path 225" d="M176.2,336.041c-29.756-11.676-5.951-69.865,54.674-86.9,0,0,11.885,25.841,10.562,51.142C240.3,321.876,217.889,352.38,176.2,336.041Z" transform="translate(2702.394 -638.611)" fill="#39c296"></path><path id="Path_226" data-name="Path 226" d="M222.6,253.14a177.075,177.075,0,0,0-16.1,23.126c-2.3,4.089-4.594,8.2-6.665,12.424l-3.184,6.3-2.941,6.421a315.482,315.482,0,0,0-18.236,53.421c-1.061,4.577-1.949,9.205-2.923,13.816l-1.409,6.96-1.079,6.96L168.1,396.489c-.452,4.663-.8,9.362-1.131,14.06l-.5,6.96c-.1,2.349-.1,4.7-.174,7.047l-.261,14.06c0,4.681.47,9.379.679,14.06s.574,9.327.992,13.921h.5c.174-9.31,0-18.619.452-27.929l.887-13.921c.157-2.314.261-4.646.47-6.96l.8-6.96,1.6-13.921,2.262-13.5,1.148-6.873,1.462-6.839c1.009-4.542,1.932-9.1,3.01-13.625a391.515,391.515,0,0,1,17-53.2,265.471,265.471,0,0,1,25.684-49.436Z" transform="translate(2704.33 -635.651)" fill="#e2e2e2"></path><path id="Path_227" data-name="Path 227" d="M210.1,350.61c56.205-17.227,20.725-127.253-88.049-167.05,0,0-25.405,45.712-26.519,92.225C94.622,315.634,131.39,374.727,210.1,350.61Z" transform="translate(2652.138 -687.147)" fill="#5ed291"></path><path id="Path_228" data-name="Path 228" d="M116.5,191.982q3.1,4.3,5.882,8.8c1.984,2.923,3.811,5.934,5.621,8.944s3.585,6.056,5.22,9.153,3.48,6.073,4.977,9.275c3.184,6.247,6.543,12.372,9.327,18.811,1.444,3.184,2.976,6.317,4.472,9.466l4.037,9.675,4.02,9.658,3.637,9.8,3.654,9.8c1.218,3.271,2.123,6.647,3.184,9.953s2.14,6.63,3.2,9.953l1.618,4.959c.5,1.74.9,3.358,1.357,5.046l5.325,20.2c1.6,6.769,2.941,13.625,4.437,20.429.7,3.48,1.531,6.8,2.123,10.232s.992,6.96,1.584,10.336c1.079,6.96,2.367,13.782,3.289,20.69.644,6.96,1.427,13.921,2.227,20.881l1.183,10.441.557,10.441,1.305,21.038c.853,14.077.313,28.155,1.131,42.389h.766l1.236-21.194.626-10.6c.226-3.48.47-7.065.348-10.6l-.174-21.247V438.1l-.783-10.58-1.566-21.194c-.766-6.96-1.9-14.025-2.819-21.055l-1.462-10.441c-.557-3.48-1.375-6.96-2.053-10.441-1.444-6.96-2.749-13.921-4.315-20.881a451.117,451.117,0,0,0-27.981-80.045c-11.972-25.632-26.1-50.463-44.564-72.075Z" transform="translate(2667.673 -681.352)" fill="#e2e2e2"></path><path id="Path_229" data-name="Path 229" d="M186.051,348.766c34.367-24.866-15.522-91.721-99.064-93.5,0,0-6.682,37.134,3.48,69.2C99.046,351.759,137.937,383.568,186.051,348.766Z" transform="translate(2644.234 -634.075)" fill="#3cc395"></path><path id="Path_230" data-name="Path 230" d="M91.9,259.679a175.294,175.294,0,0,1,23.613,19.141l5.533,5.22,5.22,5.429c3.585,3.48,6.786,7.43,10.058,11.241a340.216,340.216,0,0,1,34.4,49.349l7.239,13.225a73.561,73.561,0,0,1,3.358,6.734l3.2,6.839,3.271,6.821c.539,1.131,1.114,2.262,1.618,3.48l1.409,3.48c1.827,4.7,3.776,9.344,5.777,14.008s3.619,9.431,5.22,14.217l4.994,14.391c3.219,9.64,5.777,19.489,9.136,29.216l.539-.1c-2.279-9.953-4.368-19.959-6.821-29.878l-4.333-14.7c-1.479-4.89-2.784-9.849-4.7-14.6l-5.325-14.373-1.34-3.6c-.487-1.183-1.044-2.332-1.549-3.48l-3.15-6.96-3.15-6.96a76.359,76.359,0,0,0-3.358-6.96l-7.169-13.66a285.374,285.374,0,0,0-36.055-49.523c-3.48-3.724-6.96-7.517-10.736-10.945l-5.586-5.22-5.864-4.959a152.2,152.2,0,0,0-25.266-17.4Z" transform="translate(2649.466 -631.211)" fill="#e2e2e2"></path><path id="Path_231" data-name="Path 231" d="M161.352,254.8a51.853,51.853,0,0,0-13.173-7.047c-2.262-.974-4.629-1.583-6.96-2.332s-4.768-1.114-7.169-1.653a77.053,77.053,0,0,0-14.739-1.131,43.205,43.205,0,0,0-14.791,2.749v.522a146.287,146.287,0,0,1,28.677,2.976,273.513,273.513,0,0,1,28.1,6.421Z" transform="translate(2658.806 -643.436)" fill="#e2e2e2"></path><path id="Path_232" data-name="Path 232" d="M151.531,238.129a38.684,38.684,0,0,0-9.866-7.865,56.206,56.206,0,0,0-5.481-2.819c-1.879-.818-3.811-1.5-5.725-2.227a57.214,57.214,0,0,0-12.181-2.471,32.819,32.819,0,0,0-12.668,1.148v.522a124.663,124.663,0,0,1,23.3,5.725,229.7,229.7,0,0,1,22.465,8.457Z" transform="translate(2659.613 -658.278)" fill="#e2e2e2"></path><path id="Path_233" data-name="Path 233" d="M154.9,257.584a41.242,41.242,0,0,0,3.828-7.4c.957-2.384,1.844-4.663,2.593-6.856.278-1.166.748-2.193,1.114-3.271l.539-1.618a11.241,11.241,0,0,0,.609-1.566,34.627,34.627,0,0,1,3.48-6.734l-.174-.452a15.017,15.017,0,0,0-6.369,4.924,25.476,25.476,0,0,0-3.724,7.152,48.428,48.428,0,0,0-2.4,15.818Z" transform="translate(2695.713 -653.006)" fill="#e2e2e2"></path><path id="Path_234" data-name="Path 234" d="M144.657,235.806a28.557,28.557,0,0,0,1.549-6.23c.348-1.949.47-3.846.679-5.655s.278-3.585.452-5.22a22.622,22.622,0,0,1,1.34-5.655l-.209-.3a10.98,10.98,0,0,0-3.741,4.907A20.115,20.115,0,0,0,143.3,223.7a44.756,44.756,0,0,0,1.009,12.285Z" transform="translate(2687.455 -665.544)" fill="#e2e2e2"></path><path id="Path_235" data-name="Path 235" d="M153.058,407.857h48.357a4.733,4.733,0,0,0,4.7-4.194l6.665-56a4.751,4.751,0,0,0-4.716-5.307H146.393a4.733,4.733,0,0,0-4.7,5.307l6.647,56A4.768,4.768,0,0,0,153.058,407.857Z" transform="translate(2686.294 -569.619)" fill="#3f71e2"></path><path id="Path_236" data-name="Path 236" d="M142.7,355.455h74.128a3.132,3.132,0,0,0,3.1-2.645l1.444-9.518a3.115,3.115,0,0,0-3.08-3.6H141.325a3.132,3.132,0,0,0-3.08,3.6l1.462,9.518a3.1,3.1,0,0,0,2.993,2.645Z" transform="translate(2683.74 -571.595)" fill="#0050c8"></path><path id="Path_237" data-name="Path 237" d="M177.691,283.993H716.983a8.979,8.979,0,0,0,8.962-8.962h0a8.979,8.979,0,0,0-8.962-8.962H177.691a8.962,8.962,0,0,0-8.961,8.962h0A8.962,8.962,0,0,0,177.691,283.993Z" transform="translate(2706.328 -626.082)" fill="#d8e7fc"></path><path id="Path_238" data-name="Path 238" d="M406.691,283.993H547.5a8.979,8.979,0,0,0,8.962-8.962h0a8.979,8.979,0,0,0-8.962-8.962H406.691a8.962,8.962,0,0,0-8.961,8.962h0A8.962,8.962,0,0,0,406.691,283.993Z" transform="translate(2875.811 -626.082)" fill="#99c1f9"></path><rect id="Rectangle_61" data-name="Rectangle 61" width="17.94" height="208.603" transform="translate(3401.543 -342.106)" fill="#99c1f9"></rect><rect id="Rectangle_62" data-name="Rectangle 62" width="17.94" height="208.568" transform="translate(3286.4 -342.071)" fill="#99c1f9"></rect><rect id="Rectangle_63" data-name="Rectangle 63" width="8.979" height="208.568" transform="translate(3286.4 -342.071)" fill="#d8e7fc"></rect><rect id="Rectangle_64" data-name="Rectangle 64" width="17.94" height="208.568" transform="translate(2887.848 -342.071)" fill="#99c1f9"></rect><rect id="Rectangle_65" data-name="Rectangle 65" width="17.906" height="208.603" transform="translate(3003.008 -342.106)" fill="#d8e7fc"></rect><rect id="Rectangle_66" data-name="Rectangle 66" width="8.979" height="208.568" transform="translate(2887.848 -342.071)" fill="#d8e7fc"></rect><path id="Path_239" data-name="Path 239" d="M489.223,276.37v5.742L471.3,294.919V276.37Z" transform="translate(2930.26 -618.459)" fill="#d8e7fc"></path><path id="Path_240" data-name="Path 240" d="M405.12,276.37h17.923v5.742L405.12,294.919Z" transform="translate(2881.28 -618.459)" fill="#d8e7fc"></path><path id="Path_241" data-name="Path 241" d="M242.26,276.37h17.923v5.742L242.26,294.919Z" transform="translate(2760.748 -618.459)" fill="url(#linear-gradient-14)"></path><path id="Path_242" data-name="Path 242" d="M194,276.37v5.742L176.08,294.919V276.37Z" transform="translate(2711.768 -618.459)" fill="#d8e7fc"></path><path id="Path_243" data-name="Path 243" d="M491.56,281.257H325.92L338.1,173.44H503.723Z" transform="translate(2822.664 -694.637)" fill="#55a4ff" opacity="0.3"></path><path id="Path_244" data-name="Path 244" d="M341.218,177.9l-1.758,15.556-12.181,107.8H492.92l12.181-107.8,1.74-15.556Z" transform="translate(2823.671 -691.336)" fill="#99c1f9" opacity="0.4"></path><path id="Path_245" data-name="Path 245" d="M491.56,293.287H325.92L338.1,185.47H503.723Z" transform="translate(2822.664 -685.734)" opacity="0.6" fill="url(#linear-gradient-15)"></path><path id="Path_246" data-name="Path 246" d="M485.338,266.113H328.99l5.882-52.2H491.237Z" transform="translate(2824.937 -664.685)" fill="#fff"></path><path id="Path_247" data-name="Path 247" d="M376.134,258.429H331.5l4.785-42.389h44.634Z" transform="translate(2826.794 -663.109)" fill="#57afff"></path><path id="Path_248" data-name="Path 248" d="M380.316,245.506H344.4l3.863-34.106h35.9Z" transform="translate(2836.341 -666.543)" fill="#164dd6" opacity="0.7"></path><path id="Path_249" data-name="Path 249" d="M367.249,214.69H332.83l1.288-11.38h34.419Z" transform="translate(2827.779 -672.53)" fill="#f9f4ea"></path><path id="Path_250" data-name="Path 250" d="M352.553,206H335.97l.191-1.584h16.583Z" transform="translate(2830.103 -671.709)" fill="url(#linear-gradient-16)"></path><path id="Path_251" data-name="Path 251" d="M438.036,236.039H393.42l2.7-23.979h44.634Z" transform="translate(2872.621 -666.054)" fill="#57afff"></path><path id="Path_252" data-name="Path 252" d="M437.694,229.693H393.06l.209-1.723h44.616Z" transform="translate(2872.354 -654.279)" fill="#33333d"></path><path id="Path_253" data-name="Path 253" d="M437.464,231.733H392.83l.209-1.723h44.616Z" transform="translate(2872.184 -652.77)" fill="#33333d"></path><path id="Path_254" data-name="Path 254" d="M390.609,212.39H356.19l1.288-11.38H391.9Z" transform="translate(2845.067 -674.232)" fill="#f9f4ea"></path><path id="Path_255" data-name="Path 255" d="M460.13,214.69H385.08l1.288-11.38h75.051Z" transform="translate(2866.449 -672.53)" fill="#51cc93"></path><path id="Path_256" data-name="Path 256" d="M415.832,206H387.19l.191-1.584h28.625Z" transform="translate(2868.01 -671.709)" fill="#f9f4ea"></path><path id="Path_257" data-name="Path 257" d="M415.642,207.713H387l.174-1.583h28.642Z" transform="translate(2867.87 -670.443)" fill="#f9f4ea"></path><path id="Path_258" data-name="Path 258" d="M484.358,205.976H328.01l1.775-15.7H486.133Z" transform="translate(2824.211 -682.174)" fill="#fff"></path><path id="Path_259" data-name="Path 259" d="M421.45,202.9H410.07l1.288-11.38h11.38Z" transform="translate(2884.944 -681.256)" fill="#84deae"></path><path id="Path_260" data-name="Path 260" d="M412.09,202.9H400.71L402,191.52h11.38Z" transform="translate(2878.017 -681.256)" fill="#57afff"></path><path id="Path_261" data-name="Path 261" d="M402.72,202.9H391.34l1.288-11.38h11.38Z" transform="translate(2871.082 -681.256)" fill="#57afff"></path><path id="Path_262" data-name="Path 262" d="M368.735,194.033H331.34l.244-2.193h37.395Z" transform="translate(2826.676 -681.019)" fill="#57afff"></path><path id="Path_263" data-name="Path 263" d="M368.492,196.273H331.08l.261-2.193h37.395Z" transform="translate(2826.483 -679.361)" fill="#57afff"></path><path id="Path_264" data-name="Path 264" d="M347.413,198.513H330.83l.244-2.193h16.583Z" transform="translate(2826.299 -677.704)" fill="#57afff"></path><path id="Path_265" data-name="Path 265" d="M407.866,245H363.25l2.7-23.961h44.616Z" transform="translate(2850.292 -659.408)" fill="#57afff"></path><path id="Path_266" data-name="Path 266" d="M407.523,238.663H362.89l.191-1.723h44.634Z" transform="translate(2850.026 -647.641)" fill="#33333d"></path><path id="Path_267" data-name="Path 267" d="M407.294,240.7H362.66l.191-1.705h44.634Z" transform="translate(2849.856 -646.124)" fill="#33333d"></path><path id="Path_268" data-name="Path 268" d="M395.385,233.88H378.28l1.688-14.93h17.105Z" transform="translate(2861.416 -660.955)" fill="#164dd6" opacity="0.7"></path><path id="Path_269" data-name="Path 269" d="M498.543,192.079H332.92l1.757-15.539H500.3Z" transform="translate(2827.845 -692.343)" fill="#d3d3d3"></path><path id="Path_270" data-name="Path 270" d="M494.388,185.783H334.89l.574-5.133H494.979Z" transform="translate(2829.303 -689.301)" fill="#f2f2f2"></path><path id="Path_271" data-name="Path 271" d="M337.992,180.792H335.33l.313-2.662h2.662Z" transform="translate(2829.629 -691.166)" fill="#f9f4ea"></path><path id="Path_272" data-name="Path 272" d="M340.722,180.792H338.06l.3-2.662h2.662Z" transform="translate(2831.649 -691.166)" fill="#f9f4ea"></path><path id="Path_273" data-name="Path 273" d="M343.442,180.792H340.78l.3-2.662h2.68Z" transform="translate(2833.662 -691.166)" fill="#f9f4ea"></path><path id="Path_274" data-name="Path 274" d="M353.537,315.441,328.01,177.59H506.3L381.135,315.441Z" transform="translate(2824.211 -691.566)" fill="url(#linear-gradient-17)"></path><path id="Path_275" data-name="Path 275" d="M372.006,258.43H355.422a26.9,26.9,0,0,0-22.259,11.785l-1.023,1.509h63.166l-1.027-1.514A26.9,26.9,0,0,0,372.006,258.43Z" transform="translate(2827.268 -631.736)" fill="#3f71e2"></path><path id="Path_276" data-name="Path 276" d="M364.9,260.034c0,.539-4.594.974-10.249.974s-10.249-.435-10.249-.974,4.594-.974,10.249-.974S364.9,259.495,364.9,260.034Z" transform="translate(2836.341 -631.27)" opacity="0.4" fill="url(#linear-gradient-18)"></path><path id="Path_286" data-name="Path 286" d="M300.836,385.805c1.079,1.74,1.2,4.646,7.883,7.134s20.6,3.15,13.016,6a36.628,36.628,0,0,1-18.114,1.9c-4.577-.47-7.274.244-12.651.47-7.065.313-7.152-.1-6.578-7.848C285.192,382.812,297.356,379.976,300.836,385.805Z" transform="translate(2791.77 -539.667)" fill="#231a66"></path><path id="Path_287" data-name="Path 287" d="M284.792,449.483c11.537-39.6,16.9-113.7,36.768-142.688,12.633-18.393,37.168-11.137,28.085,13.538-9.727,26.363-34.35,75.607-48.149,128.141C300.139,453.676,283.469,454.129,284.792,449.483Z" transform="translate(2792.17 -603.571)" fill="#3f71e2"></path><path id="Path_288" data-name="Path 288" d="M374,330.606c10.562-3.9,19.7-40.022-19.141-35.133-17.244,2.158-78.165,6.769-87.353,7.883s-22.621,3.358-24.013,8.057c-7.326,23.474,21.177,44.581,55.474,36.908C321.8,343.187,352.04,338.68,374,330.606Z" transform="translate(2760.803 -604.656)" fill="#3f71e2"></path><path id="Path_289" data-name="Path 289" d="M291.292,272.215c-5.638,4.3-11.676,4.211-28.224,6.195-23.822,2.854-29.669,2-44.825-1.462-9.884-2.262-2.106-23.839,11.589-24.361,11.572-.5,51.872,11.693,58.92,11.363C293.415,263.654,295.938,268.735,291.292,272.215Z" transform="translate(2739.679 -636.072)" fill="url(#linear-gradient-19)"></path><path id="Path_290" data-name="Path 290" d="M214.443,290.911c1.027-5.447,5.22-17.21,22.326-42.215a194.9,194.9,0,0,1,19.855-25.249c6.839-7.517,17.018-4.959,19.4-.174,3.811,7.709,3.776,20.742.418,24.9-18.88,23.491-34.8,40.388-38.4,46.878C232.853,304.484,213.225,297.367,214.443,290.911Z" transform="translate(2740.12 -661.137)" fill="#ccd9f8"></path><path id="Path_291" data-name="Path 291" d="M317.947,387.755c1.079,1.74,6,5.847,12.685,8.335s20.6,3.15,13.033,6-16.635,1.74-21.229,1.305a95.259,95.259,0,0,0-14.356-.139c-7.082.313-7.152-.1-6.577-7.848C302.3,384.762,314.466,381.926,317.947,387.755Z" transform="translate(2804.432 -538.224)" fill="#231a66"></path><path id="Path_292" data-name="Path 292" d="M247.374,211.959c1.427,14.321,1.844,17.4,8.109,23.352s16.026,6.717,22.813,6.717c7.326,0,12.181-8.84,13.816-14.9a88.188,88.188,0,0,0,1.427-33.741C292.495,185.44,282.7,175.8,272.571,175.8S243.876,176.983,247.374,211.959Z" transform="translate(2764.212 -692.89)" fill="#f0bc99"></path><path id="Path_293" data-name="Path 293" d="M251.774,215.041c-.383,4.959-.748,10.667-.922,15.887a13.677,13.677,0,0,0,11.937,13.921,6.3,6.3,0,0,0,.783,0c6.177,0,13.451-5.6,12.912-11.8-.365-4.02-.487-8.074-.5-11.641a16.131,16.131,0,0,0-10.736-15.1h0a10.127,10.127,0,0,0-13.468,8.735Z" transform="translate(2767.103 -670.741)" fill="#f0bc99"></path><path id="Path_294" data-name="Path 294" d="M236.306,268.546c11.5,37.778,15.278,60.364,13.016,86.761h86.553s-.5-64.227-6.3-108.617a33.253,33.253,0,0,0-18.288-25.458c-6.508-3.48-18.289-5.1-23.074-5.1H272.222a60.9,60.9,0,0,0-16.879,2.088C231.747,225.461,229.659,246.655,236.306,268.546Z" transform="translate(2753.912 -663.046)" fill="#ccd9f8"></path><path id="Path_295" data-name="Path 295" d="M244.062,349.061s-7.482-18.167-.365-52.951h86.553a493.745,493.745,0,0,1,3.149,52.951Z" transform="translate(2759.538 -603.849)" fill="#0050c8"></path><path id="Path_296" data-name="Path 296" d="M301.84,449.762c14.721-38.526,26.1-111.941,48.305-139.208,14.095-17.3,37.952-8.057,26.867,15.8-11.833,25.492-40.405,72.545-58.45,123.773C316.788,455.209,300.17,454.287,301.84,449.762Z" transform="translate(2804.756 -599.761)" fill="#3f71e2"></path><path id="Path_297" data-name="Path 297" d="M395.94,336.339c10.841-3.028,22.9-38.282-16.218-36.542-17.4.748-78.461.348-87.684.731s-22.76,1.479-24.605,6.038c-9.222,22.813,17.4,46.182,52.2,41.327C342.972,344.621,373.476,342.586,395.94,336.339Z" transform="translate(2778.015 -601.167)" fill="#3f71e2"></path><path id="Path_298" data-name="Path 298" d="M272.083,197.935c-2.019,4.959-1.549,9.832,1.044,10.893s6.334-2.106,8.352-7.047,1.566-9.831-1.027-10.893S274.119,192.976,272.083,197.935Z" transform="translate(2781.892 -681.876)" fill="#f0bc99"></path><path id="Path_299" data-name="Path 299" d="M254.645,197.935c2.036,4.959,1.566,9.832-1.027,10.893s-6.334-2.106-8.352-7.047-1.566-9.831,1.027-10.893S252.7,192.976,254.645,197.935Z" transform="translate(2762.04 -681.876)" fill="#f0bc99"></path><path id="Path_300" data-name="Path 300" d="M250.031,186.838c5.568,8.318,32.523,9.1,41.327,6.021s8.178-20.063-4.4-21.229c-7.082,0-1.949,1.74-7.691,4.02C276.358,176.816,244.08,177.947,250.031,186.838Z" transform="translate(2765.958 -695.977)" fill="#21283a"></path><path id="Path_301" data-name="Path 301" d="M339.988,236.706c3.6-2.262,34.437-21.821,34.071-14.164-.4,8.492-10.98,17.627-14.808,20.237-6.96,4.768-14.547,6.317-17.4,2.558C339.8,242.675,336.56,238.847,339.988,236.706Z" transform="translate(2831.966 -659.605)" fill="#f0bc99"></path><path id="Path_302" data-name="Path 302" d="M400.273,237c-6.525,1.427-45.834,13.26-58.137,19.454-7.1-3.9-22.465-19.75-47.453-34.8-9.275-5.568-17.732-3.689-25.266.487-4.663,2.575-6.752,12.859,1.061,19.367a194.887,194.887,0,0,0,26.1,18.671c25.753,15.974,37.708,19.611,43.189,20.394a2.958,2.958,0,0,0,.679,0h.209a2.871,2.871,0,0,0,.557-.122,6.032,6.032,0,0,0,1.062-.209,220.58,220.58,0,0,0,42.6-20.081c15.818-9.309,17.505-8.474,20.707-14.686A5.534,5.534,0,0,0,400.273,237Z" transform="translate(2777.771 -661.518)" fill="#ccd9f8"></path><path id="Path_303" data-name="Path 303" d="M283.5,180.928c8.283,5.011,10.214,9.4,9.988,19.663s-4.629,27.842-23.509,31.67-23.352-14.826-24.5-27.842-.4-22.621,9.153-24.918C268.809,176.125,278.466,177.883,283.5,180.928Z" transform="translate(2762.823 -691.51)" fill="#21283a"></path><path id="Path_304" data-name="Path 304" d="M360.073,397.488a6.282,6.282,0,0,1-6.143-5.011H246.9a6.264,6.264,0,0,1-12.407-1.253A11.293,11.293,0,0,1,245.818,380h109.3a11.276,11.276,0,0,1,11.276,11.276,6.264,6.264,0,0,1-6.317,6.212Z" transform="translate(2754.997 -541.762)" fill="#f1d27f"></path><path id="Path_305" data-name="Path 305" d="M406.049,378.091H372.987c-17.4,0-28.538-9.205-31.2-25.945-3.254-20.5-9.31-87.544-9.379-88.206a7.813,7.813,0,0,0-9.588-6.96H223.338a9.953,9.953,0,0,0-8.022,10.319c.244,2.784,6.16,68.281,9.518,89.337,3.88,24.361,21.386,39.03,46.809,39.03H404.187a10.04,10.04,0,0,0,9.727-8.8,7.761,7.761,0,0,0-7.865-8.77Z" transform="translate(2740.795 -632.965)" fill="#f1d27f"></path><path id="Path_306" data-name="Path 306" d="M263.85,336.6h29.582v12.7A2.436,2.436,0,0,1,291,351.739H266.3a2.436,2.436,0,0,1-2.436-2.436V336.6Z" transform="translate(2776.727 -573.882)" fill="#f1d27f"></path><rect id="Rectangle_67" data-name="Rectangle 67" width="19.907" height="58.972" transform="translate(3045.466 -222.144)" fill="#d8e7fc"></rect><path id="Path_307" data-name="Path 307" d="M267.091,373h21.96a2.4,2.4,0,0,1,2.4,2.4v15.974H264.69V375.4A2.4,2.4,0,0,1,267.091,373Z" transform="translate(2777.348 -546.943)" fill="#d8b058"></path><path id="Path_308" data-name="Path 308" d="M313.14,397.488A6.282,6.282,0,0,1,307,392.476H265.81a6.264,6.264,0,0,1-12.389-1.253A11.276,11.276,0,0,1,264.7,380h43.5a11.293,11.293,0,0,1,11.276,11.276,6.264,6.264,0,0,1-6.334,6.212Z" transform="translate(2769.007 -541.762)" fill="#d8b058"></path><path id="Path_309" data-name="Path 309" d="M270.388,394.976a8.544,8.544,0,1,1-8.544-8.526,8.544,8.544,0,0,1,8.544,8.526Z" transform="translate(2768.918 -536.988)" fill="#d8b058"></path><path id="Path_310" data-name="Path 310" d="M267.973,394.976a8.527,8.527,0,1,1-8.526-8.526A8.527,8.527,0,0,1,267.973,394.976Z" transform="translate(2767.157 -536.988)" fill="#f1d27f"></path><path id="Path_311" data-name="Path 311" d="M301.108,394.976a8.544,8.544,0,1,1-8.526-8.526A8.544,8.544,0,0,1,301.108,394.976Z" transform="translate(2791.654 -536.988)" fill="#d8b058"></path><path id="Path_312" data-name="Path 312" d="M298.718,394.976a8.544,8.544,0,1,1-8.544-8.526,8.544,8.544,0,0,1,8.544,8.526Z" transform="translate(2789.885 -536.988)" fill="#f1d27f"></path><path id="Path_313" data-name="Path 313" d="M251.468,394.976a8.544,8.544,0,1,1-8.544-8.526A8.544,8.544,0,0,1,251.468,394.976Z" transform="translate(2754.916 -536.988)" fill="#d8b058"></path><path id="Path_314" data-name="Path 314" d="M249.068,394.976a8.544,8.544,0,1,1-8.526-8.526A8.544,8.544,0,0,1,249.068,394.976Z" transform="translate(2753.139 -536.988)" fill="#f1d27f"></path><path id="Path_315" data-name="Path 315" d="M320.013,394.976a8.526,8.526,0,1,1-8.526-8.526A8.526,8.526,0,0,1,320.013,394.976Z" transform="translate(2805.672 -536.988)" fill="#d8b058"></path><path id="Path_316" data-name="Path 316" d="M317.638,394.976a8.544,8.544,0,1,1-8.526-8.526,8.544,8.544,0,0,1,8.526,8.526Z" transform="translate(2803.888 -536.988)" fill="#f1d27f"></path><path id="Path_317" data-name="Path 317" d="M286.567,352.347l-19.907-5.568V345.3h19.907Z" transform="translate(2778.806 -567.444)" fill="#cecece"></path><path id="Path_318" data-name="Path 318" d="M293.519,343.63l-29.669-5.551V336.6h29.669Z" transform="translate(2776.727 -573.882)" fill="#d8b058"></path><path id="Path_319" data-name="Path 319" d="M361.875,395.675H328.814c-25.423,0-42.928-14.6-46.809-39.03-3.358-21.055-9.275-86.552-9.518-89.337a9.953,9.953,0,0,1,8.022-10.319,7.813,7.813,0,0,1,9.588,6.96c0,.661,6.125,67.707,9.379,88.206,2.662,16.74,13.747,25.945,31.2,25.945h33.062a7.761,7.761,0,0,1,7.865,8.788A10.04,10.04,0,0,1,361.875,395.675Z" transform="translate(2783.107 -632.958)" fill="#d8b058"></path><path id="Path_321" data-name="Path 321" d="M432.247,273.13h0c-13.329,3.776-41.884,12.72-52.046,17.836-7.1-3.9-22.465-19.75-47.452-34.8a22.778,22.778,0,0,0-10.545-3.48,68,68,0,0,0-18.793-3.637v-2.471a15.517,15.517,0,0,0-.139-1.549c7.082-.348,11.763-8.927,13.381-14.86a60.759,60.759,0,0,0,1.5-7.552,12.789,12.789,0,0,0,5.551-6.786c2.036-4.959,1.566-9.832-1.027-10.893a4.072,4.072,0,0,0-3.793.835c-.122-2.941-.365-6.038-.8-9.344a13.922,13.922,0,0,0-.957-3.48.686.686,0,0,0,.522-.157c8.7-3.063,8.178-20.063-4.4-21.229-7.082,0-1.949,1.74-7.691,4.02-2.68,1.079-30.017,2.106-29.947,9.136-6.647,2.871-7.813,10.441-7.239,20.394-2.314,1.322-2.68,5.951-.731,10.7a15.871,15.871,0,0,0,3.063,4.89,34.193,34.193,0,0,0,2.993,7.448,18.219,18.219,0,0,0,5.951,9.832,10.111,10.111,0,0,0-.435,2.227c-.226,2.889-.435,6.038-.609,9.188a47.325,47.325,0,0,0-9,1.74c-9,2.767-14.843,7.552-18.306,13.608a228.12,228.12,0,0,0-14.077,18.776c-15.208,22.2-20.185,33.949-21.838,40.109-2.349,5.325-2.193,10.858,1.618,12.72,1.583,17.157,6.16,65.724,8.962,83.3,3.88,24.361,21.386,39.03,46.809,39.03H300.9v10.91a4.228,4.228,0,0,0,4.228,4.228h.661V522.1a4.159,4.159,0,0,0-3.48,4.089v8.074H261.109a11.293,11.293,0,0,0-11.276,11.276,5.536,5.536,0,0,0,.122,1.079,8.509,8.509,0,0,0,4.072,15.991,8.147,8.147,0,0,0,2.071-.3,8.407,8.407,0,0,0,2.088.3,8.509,8.509,0,0,0,4.4-15.818h19.959a8.492,8.492,0,0,0,6.491,15.522,8.143,8.143,0,0,0,2.071.3,8.509,8.509,0,0,0,4.4-15.818h40.422a8.509,8.509,0,0,0,4.385,15.818,8.179,8.179,0,0,0,2.088-.3,8.29,8.29,0,0,0,2.088.3,8.509,8.509,0,0,0,7.952-5.516,30.241,30.241,0,0,1,3.2.157,43.326,43.326,0,0,0,9.745.139,7.571,7.571,0,0,0,.661,1.218,2.384,2.384,0,0,0,2.314,2.436,8.441,8.441,0,0,0,4.89,1.566,8.149,8.149,0,0,0,2.071-.3,8.282,8.282,0,0,0,2.088.3,8.579,8.579,0,0,0,4.994-1.636c1.583,0,3.15.122,4.716.278,4.594.487,13.642,1.549,21.229-1.305s-6.351-3.48-13.033-6a33.551,33.551,0,0,1-11.85-7.291.62.62,0,0,0,.1-.174c17.227-48.932,44.025-93.965,56.71-120.154a24.641,24.641,0,0,0,4.559-14.547,13.208,13.208,0,0,0-4.176-10.6c-3.95-4.228-11.032-6.96-22.621-6.508-3.654.157-9.275.261-15.922.331a11.78,11.78,0,0,0-3.115-3.48c-4.281-3.88-11.572-6.073-23.126-4.629-5.325.679-14.826,1.566-25.667,2.523-.087-.7-.122-1.079-.122-1.079s-.365-45.782-3.967-86.744c17.975,10.232,27.146,12.912,31.739,13.573a2.96,2.96,0,0,0,.679,0h.209a2.867,2.867,0,0,0,.557-.122,6.019,6.019,0,0,0,1.061-.209,220.579,220.579,0,0,0,42.563-20.168c11.711-6.96,15.661-8.231,18.254-10.98a26.364,26.364,0,0,0,10.354-4.489c3.811-2.61,14.408-11.746,14.808-20.237C466.684,251.309,435.85,270.867,432.247,273.13ZM253.365,311.168c.539,1.879,1.061,3.706,1.549,5.5l-5.22-1.183ZM397.95,441.154h-7.482l1.044-2.454,7.691-.974C398.768,438.857,398.35,440.005,397.95,441.154Zm-72.284,81.019V473.885h.644a4.228,4.228,0,0,0,4.228-4.228v-10.91h23.544c-5.342,26.1-9.466,54.256-14.756,75.468H329.094v-7.952a4.159,4.159,0,0,0-3.428-4.089ZM360.782,549.3a16.215,16.215,0,0,1-4.733-2.558h10.736a1.844,1.844,0,0,0,.592,1.148,8.421,8.421,0,0,0-1.914,2.732A36.347,36.347,0,0,1,360.782,549.3Zm10.2-15.034H355.822a660.884,660.884,0,0,1,27.2-75.468h9.153c-7.709,25.284-14.217,53.665-21.194,75.468Z" transform="translate(2739.706 -696.028)" fill="none"></path><g id="Group_112" data-name="Group 112" transform="translate(2769 -607.819)"><path id="Path_277" data-name="Path 277" d="M534.476,136.185H111.53l3.082-6.525H537.541Z" transform="translate(-111.53 -129.66)" fill="#99c1f9"></path><path id="Path_278" data-name="Path 278" d="M147.716,187.875a1.514,1.514,0,0,1-1.5-1.514V132.1a1.514,1.514,0,0,1,3.01,0v54.256a1.514,1.514,0,0,1-1.514,1.514Z" transform="translate(-85.856 -128.851)" fill="#99c1f9"></path><path id="Path_279" data-name="Path 279" d="M316.277,187.875a1.5,1.5,0,0,1-1.5-1.514V132.1a1.514,1.514,0,0,1,3.01,0v54.256a1.514,1.514,0,0,1-1.514,1.514Z" transform="translate(46.395 -128.851)" fill="#99c1f9"></path><path id="Path_280" data-name="Path 280" d="M534.476,141.393H111.53l3.082-6.543H537.541Z" transform="translate(-111.53 -125.819)" fill="#99c1f9"></path><path id="Path_281" data-name="Path 281" d="M534.476,146.575H111.53l3.082-6.525H537.541Z" transform="translate(-111.53 -121.97)" fill="#99c1f9"></path><path id="Path_282" data-name="Path 282" d="M534.476,151.775H111.53l3.082-6.525H537.541Z" transform="translate(-111.53 -118.122)" fill="#99c1f9"></path><path id="Path_283" data-name="Path 283" d="M534.476,156.983H111.53l3.082-6.543H537.541Z" transform="translate(-111.53 -114.281)" fill="#99c1f9"></path><path id="Path_284" data-name="Path 284" d="M534.476,162.165H111.53l3.082-6.525H537.541Z" transform="translate(-111.53 -110.432)" fill="#99c1f9"></path><path id="Path_285" data-name="Path 285" d="M534.476,167.365H111.53l3.082-6.525H537.541Z" transform="translate(-111.53 -106.584)" fill="#99c1f9"></path></g><g id="Group_113" data-name="Group 113" transform="translate(2875.146 -823)"><path id="Path_322" data-name="Path 322" d="M107.029,135.775A18.984,18.984,0,1,1,88.1,116.79a18.984,18.984,0,0,1,18.932,18.984Z" transform="translate(-49.814 86.436)" fill="#fff"></path><path id="Path_323" data-name="Path 323" d="M115.249,189.114V173.453a8.422,8.422,0,0,0-8.387-8.387h-7.8V0H93.411V165.014H85.6a8.422,8.422,0,0,0-8.457,8.387v15.661A38.178,38.178,0,0,0,58,222.124h76.356a38.143,38.143,0,0,0-19.106-33.01Z" transform="translate(-58)" fill="#ffd100"></path></g></g></svg> 